<mxfile host="65bd71144e">
    <diagram id="5PEoEPHC-zVxfvLrrla8" name="Page-1">
        <mxGraphModel dx="869" dy="795" grid="1" gridSize="10" guides="1" tooltips="1" connect="1" arrows="1" fold="1" page="1" pageScale="1" pageWidth="850" pageHeight="1100" math="0" shadow="0">
            <root>
                <mxCell id="0"/>
                <mxCell id="1" parent="0"/>
                <mxCell id="2" value="actor" style="swimlane;fontStyle=0;childLayout=stackLayout;horizontal=1;startSize=30;horizontalStack=0;resizeParent=1;resizeParentMax=0;resizeLast=0;collapsible=1;marginBottom=0;whiteSpace=wrap;html=1;" parent="1" vertex="1">
                    <mxGeometry x="260" y="250" width="160" height="90" as="geometry"/>
                </mxCell>
                <mxCell id="4" value="id" style="text;strokeColor=none;fillColor=none;align=left;verticalAlign=middle;spacingLeft=4;spacingRight=4;overflow=hidden;points=[[0,0.5],[1,0.5]];portConstraint=eastwest;rotatable=0;whiteSpace=wrap;html=1;" parent="2" vertex="1">
                    <mxGeometry y="30" width="160" height="30" as="geometry"/>
                </mxCell>
                <mxCell id="78" value="... (src/entity/actor.entity.ts)" style="text;strokeColor=none;fillColor=none;align=left;verticalAlign=middle;spacingLeft=4;spacingRight=4;overflow=hidden;points=[[0,0.5],[1,0.5]];portConstraint=eastwest;rotatable=0;whiteSpace=wrap;html=1;" parent="2" vertex="1">
                    <mxGeometry y="60" width="160" height="30" as="geometry"/>
                </mxCell>
                <mxCell id="23" value="agent" style="swimlane;fontStyle=0;childLayout=stackLayout;horizontal=1;startSize=30;horizontalStack=0;resizeParent=1;resizeParentMax=0;resizeLast=0;collapsible=1;marginBottom=0;whiteSpace=wrap;html=1;" parent="1" vertex="1">
                    <mxGeometry x="30" y="110" width="170" height="90" as="geometry"/>
                </mxCell>
                <mxCell id="57" value="id" style="text;strokeColor=none;fillColor=none;align=left;verticalAlign=middle;spacingLeft=4;spacingRight=4;overflow=hidden;points=[[0,0.5],[1,0.5]];portConstraint=eastwest;rotatable=0;whiteSpace=wrap;html=1;" parent="23" vertex="1">
                    <mxGeometry y="30" width="170" height="30" as="geometry"/>
                </mxCell>
                <mxCell id="25" value="... (src/entity/agent.entity.ts)" style="text;strokeColor=none;fillColor=none;align=left;verticalAlign=middle;spacingLeft=4;spacingRight=4;overflow=hidden;points=[[0,0.5],[1,0.5]];portConstraint=eastwest;rotatable=0;whiteSpace=wrap;html=1;" parent="23" vertex="1">
                    <mxGeometry y="60" width="170" height="30" as="geometry"/>
                </mxCell>
                <mxCell id="53" value="" style="edgeStyle=entityRelationEdgeStyle;fontSize=12;html=1;endArrow=ERoneToMany;exitX=1;exitY=0.5;exitDx=0;exitDy=0;entryX=0;entryY=0.033;entryDx=0;entryDy=0;entryPerimeter=0;" parent="1" target="2" edge="1">
                    <mxGeometry width="100" height="100" relative="1" as="geometry">
                        <mxPoint x="200" y="150" as="sourcePoint"/>
                        <mxPoint x="380.0000000000001" y="270" as="targetPoint"/>
                    </mxGeometry>
                </mxCell>
                <mxCell id="58" value="city" style="swimlane;fontStyle=0;childLayout=stackLayout;horizontal=1;startSize=30;horizontalStack=0;resizeParent=1;resizeParentMax=0;resizeLast=0;collapsible=1;marginBottom=0;whiteSpace=wrap;html=1;" parent="1" vertex="1">
                    <mxGeometry x="60" y="460" width="140" height="90" as="geometry"/>
                </mxCell>
                <mxCell id="59" value="id" style="text;strokeColor=none;fillColor=none;align=left;verticalAlign=middle;spacingLeft=4;spacingRight=4;overflow=hidden;points=[[0,0.5],[1,0.5]];portConstraint=eastwest;rotatable=0;whiteSpace=wrap;html=1;" parent="58" vertex="1">
                    <mxGeometry y="30" width="140" height="30" as="geometry"/>
                </mxCell>
                <mxCell id="60" value="name" style="text;strokeColor=none;fillColor=none;align=left;verticalAlign=middle;spacingLeft=4;spacingRight=4;overflow=hidden;points=[[0,0.5],[1,0.5]];portConstraint=eastwest;rotatable=0;whiteSpace=wrap;html=1;" parent="58" vertex="1">
                    <mxGeometry y="60" width="140" height="30" as="geometry"/>
                </mxCell>
                <mxCell id="62" value="" style="edgeStyle=entityRelationEdgeStyle;fontSize=12;html=1;endArrow=ERoneToMany;exitX=0;exitY=0.5;exitDx=0;exitDy=0;" parent="1" edge="1">
                    <mxGeometry width="100" height="100" relative="1" as="geometry">
                        <mxPoint x="200" y="470" as="sourcePoint"/>
                        <mxPoint x="260" y="320" as="targetPoint"/>
                    </mxGeometry>
                </mxCell>
                <mxCell id="63" value="language" style="swimlane;fontStyle=0;childLayout=stackLayout;horizontal=1;startSize=30;horizontalStack=0;resizeParent=1;resizeParentMax=0;resizeLast=0;collapsible=1;marginBottom=0;whiteSpace=wrap;html=1;" parent="1" vertex="1">
                    <mxGeometry x="710" y="250" width="140" height="90" as="geometry"/>
                </mxCell>
                <mxCell id="64" value="id" style="text;strokeColor=none;fillColor=none;align=left;verticalAlign=middle;spacingLeft=4;spacingRight=4;overflow=hidden;points=[[0,0.5],[1,0.5]];portConstraint=eastwest;rotatable=0;whiteSpace=wrap;html=1;" parent="63" vertex="1">
                    <mxGeometry y="30" width="140" height="30" as="geometry"/>
                </mxCell>
                <mxCell id="65" value="name" style="text;strokeColor=none;fillColor=none;align=left;verticalAlign=middle;spacingLeft=4;spacingRight=4;overflow=hidden;points=[[0,0.5],[1,0.5]];portConstraint=eastwest;rotatable=0;whiteSpace=wrap;html=1;" parent="63" vertex="1">
                    <mxGeometry y="60" width="140" height="30" as="geometry"/>
                </mxCell>
                <mxCell id="70" value="eye_color" style="swimlane;fontStyle=0;childLayout=stackLayout;horizontal=1;startSize=30;horizontalStack=0;resizeParent=1;resizeParentMax=0;resizeLast=0;collapsible=1;marginBottom=0;whiteSpace=wrap;html=1;" parent="1" vertex="1">
                    <mxGeometry x="60" y="335" width="140" height="90" as="geometry"/>
                </mxCell>
                <mxCell id="71" value="id" style="text;strokeColor=none;fillColor=none;align=left;verticalAlign=middle;spacingLeft=4;spacingRight=4;overflow=hidden;points=[[0,0.5],[1,0.5]];portConstraint=eastwest;rotatable=0;whiteSpace=wrap;html=1;" parent="70" vertex="1">
                    <mxGeometry y="30" width="140" height="30" as="geometry"/>
                </mxCell>
                <mxCell id="72" value="name" style="text;strokeColor=none;fillColor=none;align=left;verticalAlign=middle;spacingLeft=4;spacingRight=4;overflow=hidden;points=[[0,0.5],[1,0.5]];portConstraint=eastwest;rotatable=0;whiteSpace=wrap;html=1;" parent="70" vertex="1">
                    <mxGeometry y="60" width="140" height="30" as="geometry"/>
                </mxCell>
                <mxCell id="76" value="" style="edgeStyle=entityRelationEdgeStyle;fontSize=12;html=1;endArrow=ERoneToMany;exitX=1;exitY=0.5;exitDx=0;exitDy=0;entryX=0;entryY=0.5;entryDx=0;entryDy=0;" parent="1" source="71" edge="1">
                    <mxGeometry width="100" height="100" relative="1" as="geometry">
                        <mxPoint x="230" y="395" as="sourcePoint"/>
                        <mxPoint x="260" y="320" as="targetPoint"/>
                    </mxGeometry>
                </mxCell>
                <mxCell id="79" value="Ввиду частых изменений полей actor и agent во время разработки, информацию о них пока лучше брать из директории src/entity&amp;nbsp;" style="text;html=1;align=center;verticalAlign=middle;whiteSpace=wrap;rounded=0;" parent="1" vertex="1">
                    <mxGeometry x="250" y="110" width="385" height="50" as="geometry"/>
                </mxCell>
                <mxCell id="80" value="actor_languages_language" style="swimlane;fontStyle=0;childLayout=stackLayout;horizontal=1;startSize=30;horizontalStack=0;resizeParent=1;resizeParentMax=0;resizeLast=0;collapsible=1;marginBottom=0;whiteSpace=wrap;html=1;" vertex="1" parent="1">
                    <mxGeometry x="490" y="250" width="160" height="90" as="geometry">
                        <mxRectangle x="500" y="250" width="40" height="30" as="alternateBounds"/>
                    </mxGeometry>
                </mxCell>
                <mxCell id="81" value="id" style="text;strokeColor=none;fillColor=none;align=left;verticalAlign=middle;spacingLeft=4;spacingRight=4;overflow=hidden;points=[[0,0.5],[1,0.5]];portConstraint=eastwest;rotatable=0;whiteSpace=wrap;html=1;" vertex="1" parent="80">
                    <mxGeometry y="30" width="160" height="30" as="geometry"/>
                </mxCell>
                <mxCell id="82" value="name" style="text;strokeColor=none;fillColor=none;align=left;verticalAlign=middle;spacingLeft=4;spacingRight=4;overflow=hidden;points=[[0,0.5],[1,0.5]];portConstraint=eastwest;rotatable=0;whiteSpace=wrap;html=1;" vertex="1" parent="80">
                    <mxGeometry y="60" width="160" height="30" as="geometry"/>
                </mxCell>
                <mxCell id="84" value="" style="edgeStyle=entityRelationEdgeStyle;fontSize=12;html=1;endArrow=ERoneToMany;exitX=1;exitY=0.5;exitDx=0;exitDy=0;entryX=0;entryY=0.5;entryDx=0;entryDy=0;" edge="1" parent="1" source="4" target="81">
                    <mxGeometry width="100" height="100" relative="1" as="geometry">
                        <mxPoint x="510" y="330" as="sourcePoint"/>
                        <mxPoint x="610" y="230" as="targetPoint"/>
                    </mxGeometry>
                </mxCell>
                <mxCell id="86" value="" style="edgeStyle=entityRelationEdgeStyle;fontSize=12;html=1;endArrow=ERoneToMany;entryX=1;entryY=0.5;entryDx=0;entryDy=0;exitX=0;exitY=0.5;exitDx=0;exitDy=0;" edge="1" parent="1" source="64" target="81">
                    <mxGeometry width="100" height="100" relative="1" as="geometry">
                        <mxPoint x="510" y="330" as="sourcePoint"/>
                        <mxPoint x="610" y="230" as="targetPoint"/>
                    </mxGeometry>
                </mxCell>
            </root>
        </mxGraphModel>
    </diagram>
</mxfile>